# xmcd CD database file
#
# Track frame offsets:
#	150
#	16931
#	36825
#	56036
#	63043
#	74736
#	90384
#	105261
#	118942
#	138917
#	146394
#	161680
#
# Disc length: 2316 seconds
#
# Revision: 1
# Processed by: cddbd v1.5.2PL0 Copyright (c) Steve Scherf et al.
# Submitted via: CDex 1.72
#
DISCID=9f090a0c
DTITLE=Canary Mine [CDN-12-Between A Rock And A Heartbreak-blues) - Between a Rock and a Heartbreak
DYEAR=2012
DGENRE=Blues
TTITLE0=I Gotta Say
TTITLE1=Chips Cashed In
TTITLE2=Get Out of Your Head
TTITLE3=Walk My Dog
TTITLE4=Born In A Town
TTITLE5=Why'd You Send Me This Trial Lord?
TTITLE6=Orion's Belt
TTITLE7=Bombizzle Blues
TTITLE8=Bury Me Not (On The Lone Prarie)
TTITLE9=Oooh Girl
TTITLE10=By The Balls
TTITLE11=Stay To Play
EXTD=YEAR: 2012
EXTT0=
EXTT1=
EXTT2=
EXTT3=
EXTT4=
EXTT5=
EXTT6=
EXTT7=
EXTT8=
EXTT9=
EXTT10=
EXTT11=
PLAYORDER=
